<svg xmlns="http://www.w3.org/2000/svg" viewBox="0 0 128 128">
  <rect width="128" height="128" rx="18" fill="#281515"/>
  <circle cx="64" cy="58" r="30" fill="#8f463f"/>
  <path d="M34 54c4-18 17-28 30-28s26 10 30 28c-8-4-19-6-30-6s-22 2-30 6z" fill="#5d2e27"/>
  <path d="M28 52l10-16 12 18z" fill="#6b3a31"/>
  <path d="M100 52l-10-16-12 18z" fill="#6b3a31"/>
  <rect x="42" y="56" width="44" height="24" rx="8" fill="#33201d"/>
  <circle cx="52" cy="60" r="3.5" fill="#ffdcc7"/>
  <circle cx="76" cy="60" r="3.5" fill="#ffdcc7"/>
  <path d="M46 79c7 6 29 6 36 0" stroke="#1a0f0d" stroke-width="4" stroke-linecap="round" fill="none"/>
  <path d="M28 100c10-10 24-14 36-14s26 4 36 14" stroke="#7d4a40" stroke-width="6" stroke-linecap="round" fill="none"/>
  <path d="M20 24l88 80" stroke="#ff6b6b" stroke-width="5" stroke-linecap="round" opacity="0.85"/>
  <path d="M26 20l12 10m6-18l6 14m58 4l-12 10" stroke="#ffb3b3" stroke-width="3" stroke-linecap="round" opacity="0.9"/>
</svg>