<svg xmlns="http://www.w3.org/2000/svg" viewBox="0 0 128 128">
  <rect width="128" height="128" rx="18" fill="#331b12"/>
  <circle cx="64" cy="58" r="30" fill="#9dbb54"/>
  <path d="M34 54c4-18 17-28 30-28s26 10 30 28c-8-4-19-6-30-6s-22 2-30 6z" fill="#6b8e2f"/>
  <path d="M28 52l10-16 12 18z" fill="#556e28"/>
  <path d="M100 52l-10-16-12 18z" fill="#556e28"/>
  <rect x="42" y="56" width="44" height="24" rx="8" fill="#384424"/>
  <circle cx="52" cy="60" r="3.5" fill="#ffe0aa"/>
  <circle cx="76" cy="60" r="3.5" fill="#ffe0aa"/>
  <path d="M46 79c7 6 29 6 36 0" stroke="#12160f" stroke-width="4" stroke-linecap="round" fill="none"/>
  <path d="M28 100c10-10 24-14 36-14s26 4 36 14" stroke="#6a8f3f" stroke-width="6" stroke-linecap="round" fill="none"/>
  <path d="M20 24l88 80" stroke="#ff7b7b" stroke-width="5" stroke-linecap="round" opacity="0.9"/>
  <path d="M50 38l8 16M76 36l-6 18" stroke="#ffd28a" stroke-width="4" stroke-linecap="round"/>
  <path d="M34 92c9 2 17 2 28 0" stroke="#ffbc7a" stroke-width="4" stroke-linecap="round" fill="none" opacity="0.9"/>
</svg>