<svg xmlns="http://www.w3.org/2000/svg" viewBox="0 0 128 128">
  <rect width="128" height="128" rx="18" fill="#172538"/>
  <ellipse cx="64" cy="102" rx="34" ry="12" fill="#0c121d"/>
  <rect x="30" y="30" width="68" height="58" rx="12" fill="#b88d5d"/>
  <rect x="38" y="38" width="52" height="18" rx="8" fill="#d3b081"/>
  <path d="M28 50h72l8 34H20z" fill="#84542e"/>
  <path d="M42 54h44l-6 22H48z" fill="#f0d7b8"/>
  <rect x="20" y="54" width="12" height="10" rx="4" fill="#8b663e"/>
  <rect x="96" y="54" width="12" height="10" rx="4" fill="#8b663e"/>
  <rect x="44" y="88" width="10" height="18" rx="3" fill="#6d4526"/>
  <rect x="74" y="88" width="10" height="18" rx="3" fill="#6d4526"/>
  <path d="M40 40l6 6m36-6l-6 6" stroke="#6d4526" stroke-width="3" stroke-linecap="round"/>
  <circle cx="50" cy="54" r="2.5" fill="#6d4526"/>
  <circle cx="78" cy="54" r="2.5" fill="#6d4526"/>
  <circle cx="64" cy="54" r="18" fill="#72d6ff" opacity="0.22"/>
  <circle cx="64" cy="54" r="28" fill="none" stroke="#78e5ff" stroke-width="3" opacity="0.7"/>
  <circle cx="64" cy="54" r="38" fill="none" stroke="#d6fbff" stroke-width="2" opacity="0.35"/>
  <path d="M44 50h40M44 58h40" stroke="#f9ffff" stroke-width="3" stroke-linecap="round" opacity="0.8"/>
  <path d="M36 80c10-4 18-6 28-6s18 2 28 6" stroke="#7fe3ff" stroke-width="4" stroke-linecap="round" fill="none" opacity="0.75"/>
</svg>