<svg xmlns="http://www.w3.org/2000/svg" viewBox="0 0 192 64">
  <g transform="translate(0 0)">
    <path d="M18 16h28l4 10-18 8-18-8z" fill="#6d7a8f"/>
    <rect x="20" y="24" width="24" height="22" rx="6" fill="#3f4d62"/>
    <path d="M24 28h16l-2 10H26z" fill="#d6deea"/>
    <rect x="24" y="46" width="6" height="10" rx="2" fill="#263243"/>
    <rect x="34" y="46" width="6" height="10" rx="2" fill="#263243"/>
    <circle cx="26" cy="30" r="1.8" fill="#f7f3d3"/>
    <circle cx="38" cy="30" r="1.8" fill="#f7f3d3"/>
  </g>
  <g transform="translate(64 0)">
    <path d="M18 14h28l6 12-20 8-20-8z" fill="#7c8595"/>
    <rect x="19" y="24" width="26" height="22" rx="6" fill="#4a5669"/>
    <path d="M24 29h16l-2 10H26z" fill="#eef3fb"/>
    <rect x="24" y="45" width="6" height="11" rx="2" fill="#2f3a4d"/>
    <rect x="34" y="45" width="6" height="11" rx="2" fill="#2f3a4d"/>
    <path d="M15 28l-6 7 8 2zM49 28l6 7-8 2z" fill="#9fb0c5"/>
    <circle cx="26" cy="30" r="1.8" fill="#f7f3d3"/>
    <circle cx="38" cy="30" r="1.8" fill="#f7f3d3"/>
  </g>
  <g transform="translate(128 0)">
    <path d="M18 16h28l4 10-18 8-18-8z" fill="#8a92a1"/>
    <rect x="20" y="24" width="24" height="22" rx="6" fill="#33404f"/>
    <path d="M24 28h16l-2 10H26z" fill="#f5f1dc"/>
    <rect x="24" y="46" width="6" height="10" rx="2" fill="#263243"/>
    <rect x="34" y="46" width="6" height="10" rx="2" fill="#263243"/>
    <path d="M20 18l12 6 12-6" fill="none" stroke="#f08c4b" stroke-width="2" stroke-linecap="round"/>
    <circle cx="26" cy="30" r="1.8" fill="#f7f3d3"/>
    <circle cx="38" cy="30" r="1.8" fill="#f7f3d3"/>
  </g>
</svg>
