<svg xmlns="http://www.w3.org/2000/svg" viewBox="0 0 192 64">
  <g transform="translate(0 0)">
    <circle cx="32" cy="16" r="7" fill="#f1d0a9"/>
    <path d="M22 24h20l4 18H18z" fill="#4d6fa5"/>
    <path d="M24 28h16l-2 10H26z" fill="#dce7f5"/>
    <rect x="24" y="42" width="6" height="12" rx="2" fill="#3a4b66"/>
    <rect x="34" y="42" width="6" height="12" rx="2" fill="#3a4b66"/>
    <path d="M18 28l-6 8 8 2zM46 28l6 8-8 2z" fill="#6f88b4"/>
    <path d="M27 8l-4 4m10-4l4 4" stroke="#c49b69" stroke-width="2" stroke-linecap="round"/>
  </g>
  <g transform="translate(64 0)">
    <circle cx="32" cy="15" r="7" fill="#f1d0a9"/>
    <path d="M22 23h20l4 19H18z" fill="#5374a9"/>
    <path d="M24 27h16l-2 10H26z" fill="#e6eef8"/>
    <rect x="24" y="41" width="6" height="13" rx="2" fill="#3a4b66"/>
    <rect x="34" y="41" width="6" height="13" rx="2" fill="#3a4b66"/>
    <path d="M18 27l-7 7 9 3zM46 27l7 7-9 3z" fill="#88a0c7"/>
    <path d="M24 8l8 5 8-5" fill="none" stroke="#c49b69" stroke-width="2" stroke-linecap="round"/>
  </g>
  <g transform="translate(128 0)">
    <circle cx="32" cy="15" r="7" fill="#f1d0a9"/>
    <path d="M22 24h20l4 18H18z" fill="#3f5f94"/>
    <path d="M24 28h16l-2 10H26z" fill="#dce7f5"/>
    <rect x="24" y="42" width="6" height="12" rx="2" fill="#3a4b66"/>
    <rect x="34" y="42" width="6" height="12" rx="2" fill="#3a4b66"/>
    <path d="M19 29l-5 10 8 0zM45 29l5 10-8 0z" fill="#6f88b4"/>
    <path d="M27 8l-3 7m10-7l3 7" stroke="#c49b69" stroke-width="2" stroke-linecap="round"/>
  </g>
</svg>
